<svg xmlns="http://www.w3.org/2000/svg" viewBox="0 0 256 144" clip-path="url(#clip)" width="1920" height="1080"><defs><clipPath id="clip" clipPathUnits="objectBoundingBox"><rect x="0" y="0" width="256" height="144"/></clipPath></defs><rect x="0" y="0" width="256" height="144" fill="rgb(70, 74, 71)"/><path d="M-90,123L190,-1L324,128Z" fill="rgb(189, 181, 140)" fill-opacity="0.79"/><path d="M141,63L124,122L232,111Z" fill="rgb(255, 250, 169)" fill-opacity="0.56"/><path d="M37,-62L-65,115L105,64Z" fill="rgb(0, 114, 165)" fill-opacity="0.43"/><path d="M120,436L-22,118L180,118Z" fill="rgb(173, 56, 0)" fill-opacity="0.64"/><path d="M278,117L179,119L160,242Z" fill="rgb(171, 60, 0)" fill-opacity="0.58"/><path d="M175,89L207,-6L138,19Z" fill="rgb(37, 58, 89)" fill-opacity="0.44"/><path d="M64,125L158,4L57,46Z" fill="rgb(164, 163, 153)" fill-opacity="0.48"/><path d="M268,117L190,8L251,23Z" fill="rgb(117, 128, 121)" fill-opacity="0.76"/><path d="M122,111L169,81L186,121Z" fill="rgb(255, 237, 166)" fill-opacity="0.68"/><path d="M88,105L5,83L46,120Z" fill="rgb(208, 250, 204)" fill-opacity="0.53"/><path d="M189,119L222,61L196,30Z" fill="rgb(255, 212, 169)" fill-opacity="0.43"/><path d="M28,98L15,115L29,122Z" fill="rgb(64, 30, 45)" fill-opacity="0.48"/><path d="M115,119L94,114L91,67Z" fill="rgb(214, 217, 161)" fill-opacity="0.58"/><path d="M105,76L-4,116L-43,43Z" fill="rgb(84, 190, 178)" fill-opacity="0.33"/><path d="M187,42L203,74L174,94Z" fill="rgb(102, 115, 105)" fill-opacity="0.52"/><path d="M177,64L147,80L148,49Z" fill="rgb(100, 112, 104)" fill-opacity="0.55"/><path d="M278,111L169,77L247,120Z" fill="rgb(235, 229, 151)" fill-opacity="0.57"/><path d="M107,127L87,103L60,126Z" fill="rgb(144, 86, 41)" fill-opacity="0.67"/><path d="M106,30L142,-60L-77,36Z" fill="rgb(0, 64, 94)" fill-opacity="0.74"/><path d="M125,101L118,158L111,100Z" fill="rgb(137, 67, 21)" fill-opacity="0.56"/><path d="M181,132L181,116L234,127Z" fill="rgb(228, 120, 9)" fill-opacity="0.48"/><path d="M177,116L82,127L195,128Z" fill="rgb(224, 132, 19)" fill-opacity="0.49"/><path d="M129,102L60,100L160,35Z" fill="rgb(200, 184, 148)" fill-opacity="0.58"/><path d="M96,38L87,57L101,86Z" fill="rgb(88, 110, 110)" fill-opacity="0.67"/><path d="M19,111L-5,119L7,98Z" fill="rgb(221, 255, 209)" fill-opacity="0.41"/><path d="M71,118L30,117L90,77Z" fill="rgb(208, 220, 178)" fill-opacity="0.67"/><path d="M85,90L96,98L80,151Z" fill="rgb(139, 71, 27)" fill-opacity="0.52"/><path d="M225,0L261,37L294,-112Z" fill="rgb(0, 70, 96)" fill-opacity="0.76"/><path d="M-11,61L-2,20L78,59Z" fill="rgb(0, 103, 129)" fill-opacity="0.67"/><path d="M293,326L220,135L97,131Z" fill="rgb(65, 18, 11)" fill-opacity="0.50"/><path d="M93,84L97,94L88,88Z" fill="rgb(241, 236, 208)" fill-opacity="0.50"/><path d="M233,112L261,117L241,103Z" fill="rgb(241, 241, 172)" fill-opacity="0.59"/><path d="M35,77L71,5L9,82Z" fill="rgb(0, 98, 124)" fill-opacity="0.37"/><path d="M161,104L122,113L121,92Z" fill="rgb(255, 213, 119)" fill-opacity="0.44"/><path d="M127,128L108,122L121,80Z" fill="rgb(161, 95, 38)" fill-opacity="0.46"/><path d="M212,46L192,41L202,66Z" fill="rgb(237, 210, 187)" fill-opacity="0.46"/><path d="M215,138L245,134L232,106Z" fill="rgb(165, 89, 31)" fill-opacity="0.52"/><path d="M46,63L35,77L74,62Z" fill="rgb(173, 166, 156)" fill-opacity="0.51"/><path d="M64,120L-6,121L3,133Z" fill="rgb(239, 133, 29)" fill-opacity="0.31"/><path d="M224,82L280,41L248,108Z" fill="rgb(14, 185, 178)" fill-opacity="0.22"/><path d="M149,112L214,95L227,118Z" fill="rgb(255, 236, 169)" fill-opacity="0.58"/><path d="M151,42L130,2L49,54Z" fill="rgb(130, 118, 123)" fill-opacity="0.34"/><path d="M239,75L210,17L208,48Z" fill="rgb(179, 153, 123)" fill-opacity="0.60"/><path d="M62,27L99,3L87,46Z" fill="rgb(59, 84, 103)" fill-opacity="0.64"/><path d="M229,124L241,143L229,96Z" fill="rgb(150, 87, 37)" fill-opacity="0.54"/><path d="M63,64L29,89L81,93Z" fill="rgb(95, 155, 150)" fill-opacity="0.56"/><path d="M10,119L25,104L36,122Z" fill="rgb(111, 75, 64)" fill-opacity="0.49"/><path d="M81,116L84,109L79,105Z" fill="rgb(222, 255, 205)" fill-opacity="0.55"/><path d="M20,83L34,118L42,95Z" fill="rgb(195, 214, 173)" fill-opacity="0.53"/><path d="M242,29L261,60L222,67Z" fill="rgb(163, 143, 118)" fill-opacity="0.55"/><path d="M169,-4L209,33L204,-5Z" fill="rgb(42, 42, 74)" fill-opacity="0.31"/><path d="M140,61L153,52L144,34Z" fill="rgb(196, 185, 180)" fill-opacity="0.57"/><path d="M118,71L107,74L130,104Z" fill="rgb(193, 190, 155)" fill-opacity="0.65"/><path d="M85,74L100,123L117,101Z" fill="rgb(206, 221, 162)" fill-opacity="0.37"/><path d="M109,81L93,56L93,78Z" fill="rgb(55, 106, 119)" fill-opacity="0.31"/><path d="M139,68L159,42L165,76Z" fill="rgb(97, 116, 112)" fill-opacity="0.38"/><path d="M113,117L138,119L112,108Z" fill="rgb(101, 68, 59)" fill-opacity="0.51"/><path d="M151,40L172,39L155,47Z" fill="rgb(206, 184, 162)" fill-opacity="0.52"/><path d="M152,98L168,79L126,67Z" fill="rgb(240, 190, 127)" fill-opacity="0.57"/><path d="M219,134L263,139L232,176Z" fill="rgb(54, 37, 46)" fill-opacity="0.43"/><path d="M172,2L210,26L113,18Z" fill="rgb(115, 104, 100)" fill-opacity="0.67"/><path d="M231,115L205,54L200,118Z" fill="rgb(239, 211, 129)" fill-opacity="0.33"/><path d="M191,87L172,69L170,107Z" fill="rgb(191, 173, 111)" fill-opacity="0.43"/><path d="M83,54L75,41L67,44Z" fill="rgb(204, 167, 145)" fill-opacity="0.43"/><path d="M141,24L196,32L187,47Z" fill="rgb(60, 91, 107)" fill-opacity="0.51"/><path d="M98,120L80,120L86,106Z" fill="rgb(91, 63, 52)" fill-opacity="0.59"/><path d="M5,118L-77,66L19,113Z" fill="rgb(205, 233, 179)" fill-opacity="0.47"/><path d="M104,32L95,35L103,3Z" fill="rgb(26, 90, 111)" fill-opacity="0.48"/><path d="M172,121L205,88L193,80Z" fill="rgb(255, 230, 175)" fill-opacity="0.57"/><path d="M89,49L91,65L102,36Z" fill="rgb(76, 104, 108)" fill-opacity="0.51"/><path d="M162,118L159,78L179,118Z" fill="rgb(255, 249, 208)" fill-opacity="0.54"/><path d="M97,114L109,123L94,122Z" fill="rgb(188, 121, 41)" fill-opacity="0.56"/><path d="M94,124L76,134L95,105Z" fill="rgb(157, 85, 37)" fill-opacity="0.50"/><path d="M268,92L260,110L198,90Z" fill="rgb(164, 200, 146)" fill-opacity="0.43"/><path d="M187,102L179,108L177,99Z" fill="rgb(255, 255, 221)" fill-opacity="0.60"/><path d="M62,54L79,50L80,63Z" fill="rgb(69, 106, 123)" fill-opacity="0.57"/><path d="M66,61L116,115L87,57Z" fill="rgb(192, 178, 149)" fill-opacity="0.40"/><path d="M237,8L189,-19L235,52Z" fill="rgb(42, 79, 110)" fill-opacity="0.33"/><path d="M184,118L211,126L143,120Z" fill="rgb(231, 137, 18)" fill-opacity="0.56"/><path d="M74,113L92,79L75,78Z" fill="rgb(193, 198, 179)" fill-opacity="0.55"/><path d="M213,90L214,104L226,85Z" fill="rgb(222, 206, 119)" fill-opacity="0.54"/><path d="M149,51L190,34L194,57Z" fill="rgb(89, 115, 114)" fill-opacity="0.59"/><path d="M14,81L34,104L-27,106Z" fill="rgb(132, 183, 158)" fill-opacity="0.59"/><path d="M240,89L219,80L245,13Z" fill="rgb(143, 136, 113)" fill-opacity="0.49"/><path d="M84,101L82,90L64,97Z" fill="rgb(219, 222, 208)" fill-opacity="0.51"/><path d="M36,9L-36,45L70,40Z" fill="rgb(0, 81, 110)" fill-opacity="0.80"/><path d="M90,91L96,109L116,97Z" fill="rgb(175, 194, 152)" fill-opacity="0.65"/><path d="M61,54L67,44L68,51Z" fill="rgb(220, 193, 173)" fill-opacity="0.51"/><path d="M96,81L61,97L36,92Z" fill="rgb(128, 182, 159)" fill-opacity="0.56"/><path d="M49,64L55,35L36,69Z" fill="rgb(7, 103, 133)" fill-opacity="0.56"/><path d="M129,24L128,48L140,17Z" fill="rgb(196, 158, 134)" fill-opacity="0.44"/><path d="M192,56L195,31L198,64Z" fill="rgb(215, 191, 177)" fill-opacity="0.52"/><path d="M117,122L143,124L134,115Z" fill="rgb(205, 126, 28)" fill-opacity="0.51"/><path d="M151,-16L43,18L-70,1Z" fill="rgb(0, 54, 83)" fill-opacity="0.81"/><path d="M96,113L106,118L116,104Z" fill="rgb(240, 233, 160)" fill-opacity="0.50"/><path d="M173,94L159,91L166,75Z" fill="rgb(253, 234, 190)" fill-opacity="0.62"/><path d="M93,94L84,112L84,91Z" fill="rgb(170, 85, 25)" fill-opacity="0.53"/><path d="M108,27L148,65L94,70Z" fill="rgb(178, 154, 123)" fill-opacity="0.54"/><path d="M235,5L250,50L277,44Z" fill="rgb(67, 112, 120)" fill-opacity="0.43"/><path d="M156,84L117,41L119,68Z" fill="rgb(204, 170, 128)" fill-opacity="0.60"/><path d="M169,97L189,92L174,107Z" fill="rgb(243, 211, 117)" fill-opacity="0.50"/><path d="M129,-31L161,37L143,37Z" fill="rgb(78, 88, 105)" fill-opacity="0.46"/><path d="M31,119L15,106L27,104Z" fill="rgb(108, 71, 72)" fill-opacity="0.56"/><path d="M127,55L140,59L139,39Z" fill="rgb(137, 124, 126)" fill-opacity="0.54"/><path d="M185,114L195,121L196,114Z" fill="rgb(109, 62, 46)" fill-opacity="0.57"/><path d="M79,7L169,-194L237,6Z" fill="rgb(24, 54, 83)" fill-opacity="0.36"/><path d="M221,100L217,119L230,115Z" fill="rgb(240, 237, 148)" fill-opacity="0.40"/><path d="M202,62L200,77L150,72Z" fill="rgb(126, 131, 111)" fill-opacity="0.83"/><path d="M61,111L51,105L54,97Z" fill="rgb(254, 255, 214)" fill-opacity="0.50"/><path d="M20,130L54,129L31,115Z" fill="rgb(175, 93, 39)" fill-opacity="0.43"/><path d="M92,28L100,39L90,43Z" fill="rgb(178, 152, 136)" fill-opacity="0.63"/><path d="M82,115L98,120L62,118Z" fill="rgb(88, 61, 47)" fill-opacity="0.50"/><path d="M75,58L44,68L69,66Z" fill="rgb(198, 182, 168)" fill-opacity="0.37"/><path d="M171,118L122,96L127,114Z" fill="rgb(255, 235, 149)" fill-opacity="0.53"/><path d="M251,118L255,123L241,118Z" fill="rgb(128, 76, 39)" fill-opacity="0.52"/><path d="M223,117L237,114L235,120Z" fill="rgb(92, 69, 91)" fill-opacity="0.54"/><path d="M178,47L152,74L198,66Z" fill="rgb(117, 126, 110)" fill-opacity="0.80"/><path d="M151,83L109,74L129,86Z" fill="rgb(255, 233, 192)" fill-opacity="0.22"/><path d="M125,101L117,106L116,89Z" fill="rgb(202, 100, 6)" fill-opacity="0.46"/><path d="M86,89L71,82L95,90Z" fill="rgb(222, 221, 209)" fill-opacity="0.48"/><path d="M214,117L177,119L291,138Z" fill="rgb(188, 110, 30)" fill-opacity="0.53"/><path d="M199,102L205,105L197,117Z" fill="rgb(255, 252, 216)" fill-opacity="0.54"/><path d="M91,44L77,46L87,74Z" fill="rgb(152, 139, 125)" fill-opacity="0.64"/><path d="M141,61L145,73L148,50Z" fill="rgb(209, 193, 176)" fill-opacity="0.64"/><path d="M183,76L181,94L190,83Z" fill="rgb(158, 154, 119)" fill-opacity="0.51"/><path d="M57,66L78,75L71,87Z" fill="rgb(95, 146, 145)" fill-opacity="0.64"/><path d="M124,118L118,109L102,121Z" fill="rgb(109, 79, 67)" fill-opacity="0.55"/><path d="M227,26L250,15L196,7Z" fill="rgb(75, 93, 101)" fill-opacity="0.64"/><path d="M148,24L129,22L159,9Z" fill="rgb(141, 123, 112)" fill-opacity="0.44"/><path d="M174,0L189,37L221,19Z" fill="rgb(130, 113, 111)" fill-opacity="0.29"/><path d="M241,47L207,101L202,83Z" fill="rgb(178, 146, 108)" fill-opacity="0.41"/><path d="M297,31L244,96L232,81Z" fill="rgb(64, 136, 140)" fill-opacity="0.27"/><path d="M2,47L-8,84L38,87Z" fill="rgb(79, 146, 136)" fill-opacity="0.36"/><path d="M64,118L-20,120L111,125Z" fill="rgb(186, 114, 41)" fill-opacity="0.46"/><path d="M65,137L-39,129L116,122Z" fill="rgb(156, 74, 29)" fill-opacity="0.55"/><path d="M48,119L30,115L40,90Z" fill="rgb(216, 221, 175)" fill-opacity="0.44"/><path d="M130,81L109,67L108,46Z" fill="rgb(146, 162, 132)" fill-opacity="0.66"/><path d="M58,53L54,39L69,47Z" fill="rgb(117, 137, 161)" fill-opacity="0.44"/><path d="M18,119L24,116L6,118Z" fill="rgb(71, 51, 57)" fill-opacity="0.47"/><path d="M53,118L83,113L65,112Z" fill="rgb(223, 234, 168)" fill-opacity="0.49"/><path d="M222,35L198,45L198,38Z" fill="rgb(156, 142, 128)" fill-opacity="0.63"/><path d="M124,102L124,115L119,89Z" fill="rgb(238, 129, 23)" fill-opacity="0.47"/><path d="M289,123L260,103L235,116Z" fill="rgb(217, 226, 164)" fill-opacity="0.59"/><path d="M243,32L230,37L240,44Z" fill="rgb(238, 163, 127)" fill-opacity="0.19"/><path d="M47,97L46,69L34,88Z" fill="rgb(92, 155, 142)" fill-opacity="0.47"/><path d="M138,-11L108,27L79,31Z" fill="rgb(37, 86, 107)" fill-opacity="0.42"/><path d="M166,96L95,90L120,79Z" fill="rgb(187, 186, 145)" fill-opacity="0.46"/><path d="M45,60L58,62L58,58Z" fill="rgb(117, 143, 158)" fill-opacity="0.40"/><path d="M95,49L108,51L114,95Z" fill="rgb(179, 160, 132)" fill-opacity="0.51"/><path d="M77,43L60,34L88,40Z" fill="rgb(52, 81, 101)" fill-opacity="0.50"/><path d="M12,117L-8,119L8,120Z" fill="rgb(95, 71, 47)" fill-opacity="0.51"/><path d="M95,2L71,39L87,34Z" fill="rgb(77, 94, 105)" fill-opacity="0.44"/><path d="M11,80L11,95L26,89Z" fill="rgb(195, 210, 195)" fill-opacity="0.35"/><path d="M191,161L133,129L15,143Z" fill="rgb(88, 19, 2)" fill-opacity="0.24"/><path d="M186,118L151,104L137,116Z" fill="rgb(254, 242, 169)" fill-opacity="0.67"/><path d="M172,82L168,106L160,89Z" fill="rgb(245, 241, 215)" fill-opacity="0.50"/><path d="M93,108L91,87L87,95Z" fill="rgb(204, 112, 31)" fill-opacity="0.50"/><path d="M63,101L67,90L33,98Z" fill="rgb(143, 202, 171)" fill-opacity="0.37"/><path d="M165,116L149,105L175,112Z" fill="rgb(255, 244, 211)" fill-opacity="0.45"/><path d="M84,97L84,111L57,102Z" fill="rgb(182, 205, 171)" fill-opacity="0.63"/><path d="M6,120L24,127L-16,128Z" fill="rgb(214, 113, 31)" fill-opacity="0.39"/><path d="M153,41L163,42L147,52Z" fill="rgb(208, 182, 157)" fill-opacity="0.53"/><path d="M66,120L75,123L52,124Z" fill="rgb(209, 117, 26)" fill-opacity="0.48"/><path d="M195,114L198,115L194,119Z" fill="rgb(85, 90, 96)" fill-opacity="0.49"/><path d="M156,120L128,120L127,118Z" fill="rgb(241, 152, 19)" fill-opacity="0.60"/><path d="M136,79L160,98L164,79Z" fill="rgb(244, 208, 131)" fill-opacity="0.57"/><path d="M139,122L187,131L144,136Z" fill="rgb(165, 80, 14)" fill-opacity="0.40"/><path d="M215,37L209,63L225,66Z" fill="rgb(194, 171, 124)" fill-opacity="0.57"/><path d="M234,137L232,141L246,140Z" fill="rgb(50, 29, 29)" fill-opacity="0.61"/><path d="M246,50L253,62L277,46Z" fill="rgb(157, 170, 157)" fill-opacity="0.42"/><path d="M200,102L198,78L210,103Z" fill="rgb(235, 189, 137)" fill-opacity="0.56"/><path d="M35,87L34,74L45,65Z" fill="rgb(127, 156, 144)" fill-opacity="0.52"/><path d="M65,42L68,53L62,53Z" fill="rgb(186, 172, 158)" fill-opacity="0.47"/><path d="M134,55L115,66L118,38Z" fill="rgb(190, 162, 131)" fill-opacity="0.53"/><path d="M202,30L190,39L216,37Z" fill="rgb(191, 163, 153)" fill-opacity="0.50"/><path d="M195,35L203,63L194,60Z" fill="rgb(225, 201, 174)" fill-opacity="0.52"/><path d="M146,46L169,27L151,29Z" fill="rgb(58, 92, 104)" fill-opacity="0.46"/><path d="M193,101L193,76L201,93Z" fill="rgb(255, 231, 171)" fill-opacity="0.49"/><path d="M120,132L86,130L81,182Z" fill="rgb(118, 50, 20)" fill-opacity="0.70"/><path d="M134,118L135,114L131,116Z" fill="rgb(67, 57, 79)" fill-opacity="0.49"/><path d="M25,81L-13,44L44,61Z" fill="rgb(35, 122, 131)" fill-opacity="0.49"/><path d="M111,75L94,80L127,89Z" fill="rgb(157, 167, 144)" fill-opacity="0.52"/><path d="M113,91L108,116L112,115Z" fill="rgb(213, 212, 150)" fill-opacity="0.69"/><path d="M127,42L106,27L130,21Z" fill="rgb(139, 125, 112)" fill-opacity="0.45"/><path d="M78,108L75,117L82,120Z" fill="rgb(89, 58, 57)" fill-opacity="0.51"/><path d="M67,120L12,118L53,118Z" fill="rgb(152, 101, 54)" fill-opacity="0.70"/><path d="M89,88L94,98L100,80Z" fill="rgb(255, 229, 190)" fill-opacity="0.36"/><path d="M210,119L220,94L197,116Z" fill="rgb(236, 235, 159)" fill-opacity="0.48"/><path d="M232,107L234,113L241,106Z" fill="rgb(242, 231, 161)" fill-opacity="0.56"/><path d="M162,24L148,39L177,35Z" fill="rgb(64, 93, 102)" fill-opacity="0.43"/><path d="M252,47L261,51L254,25Z" fill="rgb(38, 106, 120)" fill-opacity="0.48"/><path d="M256,114L235,105L261,108Z" fill="rgb(242, 231, 167)" fill-opacity="0.50"/><path d="M94,79L113,96L94,88Z" fill="rgb(232, 215, 148)" fill-opacity="0.45"/><path d="M30,102L29,114L74,117Z" fill="rgb(220, 223, 169)" fill-opacity="0.41"/><path d="M-17,71L23,74L2,96Z" fill="rgb(90, 151, 145)" fill-opacity="0.44"/><path d="M207,132L224,130L214,114Z" fill="rgb(173, 97, 33)" fill-opacity="0.54"/><path d="M128,49L144,41L143,18Z" fill="rgb(125, 122, 130)" fill-opacity="0.50"/><path d="M171,107L160,99L170,101Z" fill="rgb(237, 251, 252)" fill-opacity="0.47"/><path d="M121,112L123,95L121,91Z" fill="rgb(240, 128, 22)" fill-opacity="0.50"/><path d="M262,-20L207,-1L266,15Z" fill="rgb(0, 54, 78)" fill-opacity="0.65"/><path d="M115,119L110,122L117,91Z" fill="rgb(160, 98, 45)" fill-opacity="0.48"/><path d="M-39,133L11,112L21,103Z" fill="rgb(191, 215, 180)" fill-opacity="0.64"/><path d="M225,98L270,75L261,108Z" fill="rgb(138, 187, 152)" fill-opacity="0.33"/><path d="M-2,128L-18,162L51,138Z" fill="rgb(148, 42, 0)" fill-opacity="0.32"/><path d="M174,13L167,22L191,14Z" fill="rgb(147, 130, 108)" fill-opacity="0.50"/><path d="M176,57L175,55L180,50Z" fill="rgb(184, 176, 150)" fill-opacity="0.48"/><path d="M169,99L136,99L139,94Z" fill="rgb(252, 230, 191)" fill-opacity="0.57"/><path d="M20,94L19,106L-17,88Z" fill="rgb(112, 171, 152)" fill-opacity="0.63"/><path d="M90,29L91,17L101,28Z" fill="rgb(5, 77, 107)" fill-opacity="0.52"/><path d="M163,116L198,108L209,110Z" fill="rgb(255, 241, 186)" fill-opacity="0.53"/><path d="M56,55L48,35L65,62Z" fill="rgb(18, 99, 140)" fill-opacity="0.46"/><path d="M182,97L178,105L184,107Z" fill="rgb(255, 255, 236)" fill-opacity="0.47"/><path d="M251,137L264,117L235,120Z" fill="rgb(166, 96, 37)" fill-opacity="0.55"/><path d="M214,103L206,109L184,113Z" fill="rgb(255, 249, 222)" fill-opacity="0.37"/><path d="M134,33L125,46L134,17Z" fill="rgb(185, 155, 131)" fill-opacity="0.50"/><path d="M51,111L44,109L62,109Z" fill="rgb(241, 236, 219)" fill-opacity="0.53"/><path d="M138,75L137,83L123,62Z" fill="rgb(232, 199, 131)" fill-opacity="0.52"/><path d="M172,77L154,72L172,82Z" fill="rgb(206, 178, 143)" fill-opacity="0.50"/><path d="M111,98L119,90L101,89Z" fill="rgb(211, 199, 145)" fill-opacity="0.51"/><path d="M207,99L197,96L188,111Z" fill="rgb(255, 196, 123)" fill-opacity="0.33"/><path d="M202,62L202,84L210,63Z" fill="rgb(221, 204, 173)" fill-opacity="0.53"/><path d="M114,10L170,1L223,12Z" fill="rgb(83, 82, 92)" fill-opacity="0.56"/><path d="M51,105L62,110L51,101Z" fill="rgb(244, 249, 205)" fill-opacity="0.48"/><path d="M153,96L163,100L155,101Z" fill="rgb(255, 245, 220)" fill-opacity="0.58"/><path d="M175,46L159,31L176,43Z" fill="rgb(133, 141, 137)" fill-opacity="0.49"/><path d="M154,76L146,58L162,42Z" fill="rgb(94, 116, 106)" fill-opacity="0.50"/><path d="M147,136L139,165L124,129Z" fill="rgb(84, 29, 13)" fill-opacity="0.56"/><path d="M226,119L229,118L214,118Z" fill="rgb(60, 46, 89)" fill-opacity="0.44"/><path d="M218,91L228,101L226,71Z" fill="rgb(178, 188, 123)" fill-opacity="0.51"/><path d="M58,45L-47,25L46,66Z" fill="rgb(0, 101, 128)" fill-opacity="0.53"/><path d="M96,52L89,52L98,82Z" fill="rgb(70, 109, 116)" fill-opacity="0.59"/><path d="M251,8L260,36L236,5Z" fill="rgb(12, 84, 103)" fill-opacity="0.45"/><path d="M70,33L60,5L36,47Z" fill="rgb(0, 72, 110)" fill-opacity="0.43"/><path d="M237,116L230,109L236,120Z" fill="rgb(106, 78, 86)" fill-opacity="0.55"/><path d="M141,35L144,55L148,42Z" fill="rgb(206, 197, 185)" fill-opacity="0.49"/><path d="M20,118L17,107L30,113Z" fill="rgb(91, 67, 75)" fill-opacity="0.50"/><path d="M115,20L119,1L136,-2Z" fill="rgb(74, 81, 93)" fill-opacity="0.48"/><path d="M44,93L15,107L-22,100Z" fill="rgb(135, 190, 153)" fill-opacity="0.39"/><path d="M197,86L192,82L191,89Z" fill="rgb(251, 245, 215)" fill-opacity="0.50"/><path d="M53,57L51,59L70,65Z" fill="rgb(154, 159, 157)" fill-opacity="0.47"/><path d="M98,66L100,82L109,75Z" fill="rgb(117, 141, 130)" fill-opacity="0.39"/><path d="M236,19L246,18L250,53Z" fill="rgb(124, 120, 110)" fill-opacity="0.46"/><path d="M232,104L231,103L230,109Z" fill="rgb(107, 64, 25)" fill-opacity="0.56"/><path d="M11,87L81,75L57,68Z" fill="rgb(90, 143, 137)" fill-opacity="0.43"/><path d="M100,118L116,119L94,120Z" fill="rgb(87, 59, 55)" fill-opacity="0.49"/><path d="M19,88L13,93L38,93Z" fill="rgb(210, 221, 194)" fill-opacity="0.51"/><path d="M113,120L114,106L130,116Z" fill="rgb(101, 76, 74)" fill-opacity="0.40"/><path d="M210,32L192,7L205,18Z" fill="rgb(83, 91, 93)" fill-opacity="0.61"/><path d="M136,91L143,78L138,98Z" fill="rgb(230, 211, 178)" fill-opacity="0.50"/><path d="M33,5L66,21L-21,23Z" fill="rgb(0, 72, 99)" fill-opacity="0.54"/><path d="M85,92L88,89L94,93Z" fill="rgb(204, 117, 30)" fill-opacity="0.51"/><path d="M97,34L110,26L96,24Z" fill="rgb(45, 96, 112)" fill-opacity="0.57"/><path d="M125,119L81,121L121,123Z" fill="rgb(215, 140, 43)" fill-opacity="0.37"/><path d="M70,26L91,31L89,45Z" fill="rgb(54, 90, 109)" fill-opacity="0.49"/><path d="M178,63L166,78L177,80Z" fill="rgb(132, 138, 114)" fill-opacity="0.50"/><path d="M61,106L59,93L57,112Z" fill="rgb(183, 211, 149)" fill-opacity="0.50"/><path d="M137,118L131,105L175,118Z" fill="rgb(252, 239, 153)" fill-opacity="0.61"/><path d="M203,26L189,38L199,16Z" fill="rgb(136, 128, 127)" fill-opacity="0.52"/><path d="M58,94L34,92L33,74Z" fill="rgb(107, 166, 150)" fill-opacity="0.59"/><path d="M26,113L38,124L29,111Z" fill="rgb(131, 94, 70)" fill-opacity="0.49"/><path d="M94,116L113,113L99,112Z" fill="rgb(244, 220, 145)" fill-opacity="0.53"/><path d="M140,81L131,54L126,50Z" fill="rgb(215, 173, 127)" fill-opacity="0.58"/><path d="M34,78L12,90L28,64Z" fill="rgb(69, 136, 135)" fill-opacity="0.38"/><path d="M175,58L169,56L180,51Z" fill="rgb(156, 158, 140)" fill-opacity="0.54"/><path d="M170,110L187,118L170,94Z" fill="rgb(250, 223, 144)" fill-opacity="0.50"/><path d="M114,107L114,100L95,90Z" fill="rgb(168, 191, 151)" fill-opacity="0.78"/><path d="M190,92L187,101L166,93Z" fill="rgb(214, 196, 125)" fill-opacity="0.47"/><path d="M63,59L75,59L71,48Z" fill="rgb(41, 102, 127)" fill-opacity="0.63"/><path d="M117,139L111,142L134,156Z" fill="rgb(72, 15, 0)" fill-opacity="0.48"/><path d="M185,124L167,131L213,131Z" fill="rgb(171, 81, 23)" fill-opacity="0.58"/><path d="M38,118L65,118L79,107Z" fill="rgb(219, 226, 166)" fill-opacity="0.69"/><path d="M192,80L202,88L210,71Z" fill="rgb(232, 192, 143)" fill-opacity="0.52"/><path d="M154,73L163,77L149,80Z" fill="rgb(202, 152, 120)" fill-opacity="0.48"/><path d="M213,51L204,43L205,59Z" fill="rgb(219, 207, 178)" fill-opacity="0.49"/><path d="M114,107L99,88L95,98Z" fill="rgb(165, 190, 151)" fill-opacity="0.54"/><path d="M45,44L64,43L50,41Z" fill="rgb(75, 115, 138)" fill-opacity="0.58"/><path d="M92,111L90,90L96,112Z" fill="rgb(199, 124, 44)" fill-opacity="0.54"/><path d="M64,96L58,109L68,96Z" fill="rgb(214, 223, 199)" fill-opacity="0.50"/><path d="M56,105L56,101L49,102Z" fill="rgb(255, 255, 229)" fill-opacity="0.50"/><path d="M159,85L123,64L150,71Z" fill="rgb(213, 176, 135)" fill-opacity="0.58"/><path d="M41,107L44,95L49,107Z" fill="rgb(159, 203, 149)" fill-opacity="0.45"/><path d="M116,20L107,58L117,48Z" fill="rgb(149, 146, 121)" fill-opacity="0.54"/><path d="M126,121L136,119L123,116Z" fill="rgb(208, 130, 32)" fill-opacity="0.50"/><path d="M171,35L168,43L157,40Z" fill="rgb(140, 148, 141)" fill-opacity="0.41"/><path d="M134,130L123,127L144,146Z" fill="rgb(91, 32, 14)" fill-opacity="0.47"/><path d="M173,92L172,86L191,91Z" fill="rgb(185, 179, 126)" fill-opacity="0.50"/><path d="M69,66L92,61L64,63Z" fill="rgb(186, 174, 156)" fill-opacity="0.54"/><path d="M230,0L144,-25L192,4Z" fill="rgb(24, 55, 74)" fill-opacity="0.59"/><path d="M74,81L79,82L74,83Z" fill="rgb(214, 210, 198)" fill-opacity="0.52"/><path d="M104,41L102,33L88,51Z" fill="rgb(109, 125, 118)" fill-opacity="0.48"/><path d="M168,30L192,62L192,37Z" fill="rgb(72, 100, 108)" fill-opacity="0.39"/><path d="M227,121L219,118L197,118Z" fill="rgb(148, 91, 35)" fill-opacity="0.62"/><path d="M128,8L111,20L128,34Z" fill="rgb(112, 105, 104)" fill-opacity="0.38"/><path d="M115,78L125,82L113,69Z" fill="rgb(232, 212, 188)" fill-opacity="0.50"/><path d="M163,118L198,118L156,124Z" fill="rgb(218, 126, 17)" fill-opacity="0.51"/><path d="M139,87L131,99L113,86Z" fill="rgb(176, 180, 147)" fill-opacity="0.42"/><path d="M243,10L257,24L251,33Z" fill="rgb(33, 90, 103)" fill-opacity="0.48"/><path d="M96,81L88,53L84,71Z" fill="rgb(161, 156, 141)" fill-opacity="0.50"/><path d="M15,117L-1,117L16,106Z" fill="rgb(202, 228, 187)" fill-opacity="0.46"/><path d="M160,92L156,83L169,80Z" fill="rgb(255, 236, 159)" fill-opacity="0.53"/><path d="M60,99L77,112L72,116Z" fill="rgb(206, 211, 179)" fill-opacity="0.63"/><path d="M116,-4L70,27L61,17Z" fill="rgb(41, 64, 86)" fill-opacity="0.41"/><path d="M55,64L57,66L49,64Z" fill="rgb(195, 181, 159)" fill-opacity="0.48"/><path d="M199,66L197,69L208,71Z" fill="rgb(182, 183, 171)" fill-opacity="0.53"/><path d="M75,73L108,87L75,70Z" fill="rgb(189, 185, 156)" fill-opacity="0.54"/><path d="M48,97L32,101L59,97Z" fill="rgb(193, 213, 191)" fill-opacity="0.67"/><path d="M255,59L242,63L240,81Z" fill="rgb(114, 138, 126)" fill-opacity="0.60"/><path d="M119,62L130,75L119,42Z" fill="rgb(219, 183, 132)" fill-opacity="0.48"/><path d="M55,47L71,55L55,50Z" fill="rgb(140, 146, 151)" fill-opacity="0.48"/><path d="M42,120L116,121L60,123Z" fill="rgb(202, 121, 40)" fill-opacity="0.56"/><path d="M29,100L18,96L43,118Z" fill="rgb(161, 192, 159)" fill-opacity="0.54"/><path d="M196,34L174,22L201,18Z" fill="rgb(125, 122, 116)" fill-opacity="0.51"/><path d="M230,118L230,98L228,114Z" fill="rgb(255, 163, 2)" fill-opacity="0.42"/><path d="M28,88L47,100L15,85Z" fill="rgb(189, 214, 184)" fill-opacity="0.48"/><path d="M49,71L81,65L54,66Z" fill="rgb(130, 156, 159)" fill-opacity="0.74"/><path d="M140,20L142,27L119,24Z" fill="rgb(165, 145, 131)" fill-opacity="0.44"/><path d="M236,65L241,96L222,73Z" fill="rgb(123, 152, 126)" fill-opacity="0.38"/><path d="M227,112L218,98L216,118Z" fill="rgb(229, 225, 155)" fill-opacity="0.49"/><path d="M249,29L251,44L235,22Z" fill="rgb(130, 125, 111)" fill-opacity="0.41"/><path d="M255,135L274,163L237,142Z" fill="rgb(88, 59, 53)" fill-opacity="0.56"/><path d="M257,59L308,77L237,80Z" fill="rgb(57, 117, 136)" fill-opacity="0.17"/><path d="M85,52L91,40L88,61Z" fill="rgb(176, 150, 136)" fill-opacity="0.52"/><path d="M244,34L222,38L215,22Z" fill="rgb(106, 112, 108)" fill-opacity="0.51"/><path d="M107,117L112,114L112,107Z" fill="rgb(243, 235, 161)" fill-opacity="0.56"/><path d="M168,106L173,108L167,100Z" fill="rgb(232, 253, 254)" fill-opacity="0.35"/><path d="M205,125L274,125L241,123Z" fill="rgb(214, 121, 32)" fill-opacity="0.49"/><path d="M132,58L143,17L139,67Z" fill="rgb(141, 132, 125)" fill-opacity="0.59"/><path d="M116,92L122,125L119,92Z" fill="rgb(149, 87, 37)" fill-opacity="0.53"/><path d="M95,10L114,20L88,27Z" fill="rgb(21, 78, 101)" fill-opacity="0.54"/><path d="M81,73L80,91L91,81Z" fill="rgb(199, 186, 159)" fill-opacity="0.46"/><path d="M227,101L228,115L219,118Z" fill="rgb(232, 229, 155)" fill-opacity="0.53"/><path d="M207,11L186,4L236,6Z" fill="rgb(47, 75, 91)" fill-opacity="0.53"/><path d="M152,59L171,58L153,76Z" fill="rgb(110, 123, 106)" fill-opacity="0.58"/><path d="M225,49L234,73L231,34Z" fill="rgb(130, 121, 110)" fill-opacity="0.37"/><path d="M126,50L127,34L131,51Z" fill="rgb(196, 159, 134)" fill-opacity="0.65"/><path d="M105,3L106,17L118,0Z" fill="rgb(2, 66, 90)" fill-opacity="0.54"/><path d="M125,62L129,64L123,46Z" fill="rgb(139, 142, 118)" fill-opacity="0.53"/><path d="M195,49L210,46L202,66Z" fill="rgb(221, 200, 169)" fill-opacity="0.75"/><path d="M84,90L92,91L92,102Z" fill="rgb(185, 100, 27)" fill-opacity="0.57"/><path d="M138,94L157,96L145,81Z" fill="rgb(205, 188, 123)" fill-opacity="0.47"/><path d="M161,40L151,47L154,38Z" fill="rgb(206, 172, 140)" fill-opacity="0.56"/><path d="M196,115L199,119L180,118Z" fill="rgb(114, 77, 71)" fill-opacity="0.40"/><path d="M215,72L223,60L200,55Z" fill="rgb(204, 177, 117)" fill-opacity="0.49"/><path d="M149,52L145,66L139,53Z" fill="rgb(211, 194, 175)" fill-opacity="0.52"/><path d="M84,86L79,87L84,102Z" fill="rgb(212, 220, 204)" fill-opacity="0.55"/><path d="M88,105L80,120L92,120Z" fill="rgb(104, 73, 55)" fill-opacity="0.60"/><path d="M91,66L99,72L98,60Z" fill="rgb(106, 131, 122)" fill-opacity="0.53"/><path d="M91,9L84,-18L108,3Z" fill="rgb(38, 63, 72)" fill-opacity="0.44"/><path d="M206,112L230,105L210,107Z" fill="rgb(203, 192, 139)" fill-opacity="0.45"/><path d="M19,94L43,76L13,96Z" fill="rgb(119, 173, 151)" fill-opacity="0.58"/><path d="M145,106L127,112L129,116Z" fill="rgb(255, 239, 156)" fill-opacity="0.51"/><path d="M130,35L142,42L130,52Z" fill="rgb(130, 130, 128)" fill-opacity="0.51"/><path d="M261,42L240,63L255,55Z" fill="rgb(162, 162, 142)" fill-opacity="0.42"/><path d="M229,119L233,112L225,119Z" fill="rgb(108, 74, 83)" fill-opacity="0.50"/><path d="M15,50L22,11L56,40Z" fill="rgb(0, 88, 113)" fill-opacity="0.44"/><path d="M61,100L67,95L65,110Z" fill="rgb(210, 211, 202)" fill-opacity="0.50"/><path d="M55,109L67,103L59,103Z" fill="rgb(192, 212, 149)" fill-opacity="0.53"/><path d="M49,112L40,108L36,101Z" fill="rgb(228, 228, 205)" fill-opacity="0.59"/><path d="M124,125L107,124L108,122Z" fill="rgb(134, 77, 46)" fill-opacity="0.49"/><path d="M-36,86L-43,127L15,107Z" fill="rgb(174, 206, 152)" fill-opacity="0.53"/><path d="M96,-3L-20,-3L67,18Z" fill="rgb(0, 50, 83)" fill-opacity="0.41"/><path d="M45,100L39,95L35,109Z" fill="rgb(215, 220, 203)" fill-opacity="0.37"/><path d="M46,47L44,42L44,49Z" fill="rgb(71, 108, 126)" fill-opacity="0.49"/><path d="M49,54L65,54L44,46Z" fill="rgb(5, 95, 132)" fill-opacity="0.48"/><path d="M200,136L155,148L239,147Z" fill="rgb(78, 39, 32)" fill-opacity="0.46"/><path d="M103,50L107,74L108,35Z" fill="rgb(201, 163, 133)" fill-opacity="0.39"/><path d="M196,81L179,83L160,72Z" fill="rgb(142, 142, 117)" fill-opacity="0.50"/><path d="M76,63L62,65L70,59Z" fill="rgb(203, 184, 162)" fill-opacity="0.52"/><path d="M41,119L35,121L5,119Z" fill="rgb(173, 120, 64)" fill-opacity="0.45"/><path d="M86,57L78,51L73,63Z" fill="rgb(95, 120, 124)" fill-opacity="0.44"/><path d="M76,42L78,57L73,49Z" fill="rgb(167, 153, 145)" fill-opacity="0.49"/><path d="M89,75L83,77L97,86Z" fill="rgb(184, 172, 139)" fill-opacity="0.41"/><path d="M10,116L17,106L15,116Z" fill="rgb(200, 220, 184)" fill-opacity="0.46"/><path d="M133,79L128,71L123,81Z" fill="rgb(160, 171, 124)" fill-opacity="0.52"/><path d="M126,45L125,61L117,18Z" fill="rgb(144, 135, 118)" fill-opacity="0.49"/><path d="M59,62L51,59L43,64Z" fill="rgb(81, 125, 142)" fill-opacity="0.51"/><path d="M71,24L70,40L58,49Z" fill="rgb(35, 84, 116)" fill-opacity="0.45"/><path d="M242,133L228,132L264,132Z" fill="rgb(206, 102, 22)" fill-opacity="0.55"/><path d="M73,116L63,131L72,115Z" fill="rgb(149, 84, 39)" fill-opacity="0.53"/><path d="M232,102L230,117L230,103Z" fill="rgb(123, 76, 38)" fill-opacity="0.46"/><path d="M145,39L141,44L144,61Z" fill="rgb(209, 195, 180)" fill-opacity="0.47"/><path d="M91,52L95,64L96,43Z" fill="rgb(56, 93, 106)" fill-opacity="0.40"/><path d="M96,48L98,62L106,46Z" fill="rgb(169, 145, 119)" fill-opacity="0.56"/><path d="M117,119L129,112L116,115Z" fill="rgb(91, 73, 80)" fill-opacity="0.47"/><path d="M168,114L147,107L200,111Z" fill="rgb(255, 243, 209)" fill-opacity="0.32"/><path d="M9,141L-10,171L-27,129Z" fill="rgb(116, 30, 3)" fill-opacity="0.41"/><path d="M201,48L211,53L201,56Z" fill="rgb(223, 212, 187)" fill-opacity="0.53"/><path d="M36,64L53,59L-15,43Z" fill="rgb(14, 114, 131)" fill-opacity="0.51"/><path d="M84,25L74,35L81,50Z" fill="rgb(87, 96, 102)" fill-opacity="0.44"/><path d="M78,128L27,143L81,143Z" fill="rgb(135, 59, 22)" fill-opacity="0.50"/><path d="M20,111L12,118L33,116Z" fill="rgb(97, 72, 78)" fill-opacity="0.52"/><path d="M55,115L39,118L31,112Z" fill="rgb(210, 226, 149)" fill-opacity="0.50"/><path d="M187,27L148,38L142,32Z" fill="rgb(71, 94, 105)" fill-opacity="0.52"/><path d="M136,123L130,119L149,119Z" fill="rgb(232, 134, 20)" fill-opacity="0.48"/><path d="M152,98L155,95L158,98Z" fill="rgb(255, 245, 218)" fill-opacity="0.54"/><path d="M13,87L10,89L13,93Z" fill="rgb(193, 217, 200)" fill-opacity="0.50"/><path d="M179,58L192,62L181,46Z" fill="rgb(95, 115, 109)" fill-opacity="0.55"/><path d="M93,129L130,127L70,123Z" fill="rgb(203, 126, 64)" fill-opacity="0.17"/><path d="M223,117L213,103L216,118Z" fill="rgb(230, 233, 157)" fill-opacity="0.48"/><path d="M163,8L119,12L173,30Z" fill="rgb(110, 105, 100)" fill-opacity="0.40"/><path d="M160,73L149,88L170,78Z" fill="rgb(241, 199, 138)" fill-opacity="0.50"/><path d="M139,98L145,110L121,99Z" fill="rgb(239, 206, 143)" fill-opacity="0.43"/><path d="M109,30L117,29L124,43Z" fill="rgb(180, 149, 125)" fill-opacity="0.35"/><path d="M122,102L126,107L112,99Z" fill="rgb(215, 125, 27)" fill-opacity="0.52"/><path d="M226,43L235,36L233,60Z" fill="rgb(123, 118, 110)" fill-opacity="0.50"/><path d="M105,118L89,115L109,118Z" fill="rgb(155, 104, 55)" fill-opacity="0.50"/><path d="M196,120L216,121L164,124Z" fill="rgb(233, 139, 29)" fill-opacity="0.42"/><path d="M130,8L133,-41L139,21Z" fill="rgb(69, 75, 124)" fill-opacity="0.20"/><path d="M240,60L232,59L243,24Z" fill="rgb(174, 139, 114)" fill-opacity="0.36"/><path d="M228,117L232,114L246,120Z" fill="rgb(109, 82, 86)" fill-opacity="0.50"/><path d="M191,61L184,50L194,57Z" fill="rgb(110, 123, 113)" fill-opacity="0.50"/><path d="M202,122L188,119L122,119Z" fill="rgb(239, 149, 26)" fill-opacity="0.48"/><path d="M212,18L227,5L241,20Z" fill="rgb(69, 90, 99)" fill-opacity="0.60"/><path d="M85,95L85,90L83,93Z" fill="rgb(171, 112, 42)" fill-opacity="0.49"/><path d="M212,48L201,38L211,38Z" fill="rgb(147, 143, 128)" fill-opacity="0.61"/><path d="M201,26L193,42L203,36Z" fill="rgb(214, 175, 160)" fill-opacity="0.44"/><path d="M105,65L105,58L112,69Z" fill="rgb(203, 172, 145)" fill-opacity="0.51"/><path d="M189,91L196,96L194,98Z" fill="rgb(229, 233, 219)" fill-opacity="0.44"/><path d="M83,15L90,28L68,43Z" fill="rgb(64, 90, 106)" fill-opacity="0.58"/><path d="M179,52L154,51L170,42Z" fill="rgb(73, 103, 99)" fill-opacity="0.39"/><path d="M191,82L197,84L193,87Z" fill="rgb(249, 243, 215)" fill-opacity="0.56"/><path d="M79,97L82,105L63,103Z" fill="rgb(162, 191, 158)" fill-opacity="0.43"/><path d="M108,127L89,139L119,130Z" fill="rgb(131, 62, 30)" fill-opacity="0.56"/><path d="M109,55L120,68L111,73Z" fill="rgb(140, 156, 134)" fill-opacity="0.51"/><path d="M199,58L205,48L191,45Z" fill="rgb(226, 197, 170)" fill-opacity="0.45"/><path d="M169,96L181,81L171,101Z" fill="rgb(202, 189, 123)" fill-opacity="0.49"/><path d="M121,114L117,101L119,95Z" fill="rgb(134, 81, 46)" fill-opacity="0.51"/><path d="M221,60L212,76L220,51Z" fill="rgb(214, 191, 129)" fill-opacity="0.54"/><path d="M60,80L65,69L81,94Z" fill="rgb(108, 158, 151)" fill-opacity="0.43"/><path d="M216,81L222,91L230,78Z" fill="rgb(176, 179, 119)" fill-opacity="0.44"/><path d="M204,80L204,94L222,87Z" fill="rgb(192, 170, 124)" fill-opacity="0.58"/><path d="M222,100L258,104L245,98Z" fill="rgb(168, 195, 146)" fill-opacity="0.58"/><path d="M107,123L125,128L117,128Z" fill="rgb(184, 105, 33)" fill-opacity="0.50"/><path d="M168,37L182,45L158,40Z" fill="rgb(131, 137, 132)" fill-opacity="0.55"/><path d="M90,111L86,100L83,116Z" fill="rgb(119, 89, 71)" fill-opacity="0.45"/><path d="M77,81L64,69L79,74Z" fill="rgb(105, 146, 141)" fill-opacity="0.53"/><path d="M86,90L87,107L93,106Z" fill="rgb(155, 97, 49)" fill-opacity="0.56"/><path d="M130,63L127,40L130,34Z" fill="rgb(203, 164, 134)" fill-opacity="0.63"/><path d="M128,88L114,89L122,80Z" fill="rgb(162, 178, 150)" fill-opacity="0.44"/><path d="M214,13L202,10L205,18Z" fill="rgb(127, 121, 107)" fill-opacity="0.48"/><path d="M138,105L128,104L128,117Z" fill="rgb(243, 230, 157)" fill-opacity="0.50"/><path d="M207,98L230,108L205,102Z" fill="rgb(255, 227, 143)" fill-opacity="0.48"/><path d="M110,109L112,114L95,119Z" fill="rgb(243, 225, 144)" fill-opacity="0.42"/><path d="M131,99L122,114L144,98Z" fill="rgb(242, 216, 147)" fill-opacity="0.53"/><path d="M93,76L82,93L74,98Z" fill="rgb(216, 210, 182)" fill-opacity="0.48"/><path d="M13,17L-41,14L97,-53Z" fill="rgb(0, 59, 77)" fill-opacity="0.38"/><path d="M206,24L195,0L207,37Z" fill="rgb(85, 95, 96)" fill-opacity="0.52"/><path d="M188,30L158,17L183,12Z" fill="rgb(127, 119, 102)" fill-opacity="0.45"/><path d="M193,54L195,60L210,45Z" fill="rgb(218, 202, 177)" fill-opacity="0.55"/><path d="M192,35L174,41L192,52Z" fill="rgb(84, 108, 110)" fill-opacity="0.54"/><path d="M11,87L-46,101L4,78Z" fill="rgb(92, 152, 146)" fill-opacity="0.76"/><path d="M80,88L96,84L93,82Z" fill="rgb(157, 164, 137)" fill-opacity="0.53"/><path d="M94,48L90,48L92,62Z" fill="rgb(59, 98, 111)" fill-opacity="0.51"/><path d="M242,107L254,108L231,99Z" fill="rgb(201, 212, 152)" fill-opacity="0.50"/><path d="M221,85L242,88L232,96Z" fill="rgb(141, 173, 132)" fill-opacity="0.42"/><path d="M82,51L73,45L73,53Z" fill="rgb(167, 149, 140)" fill-opacity="0.49"/><path d="M182,94L174,108L170,103Z" fill="rgb(244, 215, 121)" fill-opacity="0.51"/><path d="M126,108L125,107L114,113Z" fill="rgb(142, 88, 51)" fill-opacity="0.50"/><path d="M220,80L215,72L242,55Z" fill="rgb(155, 140, 110)" fill-opacity="0.62"/><path d="M209,105L217,89L204,102Z" fill="rgb(245, 210, 121)" fill-opacity="0.46"/><path d="M237,113L237,119L230,113Z" fill="rgb(110, 79, 91)" fill-opacity="0.49"/><path d="M92,93L97,86L93,102Z" fill="rgb(214, 213, 190)" fill-opacity="0.49"/><path d="M192,39L202,33L193,48Z" fill="rgb(217, 186, 161)" fill-opacity="0.58"/><path d="M221,55L205,34L215,30Z" fill="rgb(180, 161, 130)" fill-opacity="0.49"/><path d="M119,76L125,76L119,72Z" fill="rgb(116, 153, 132)" fill-opacity="0.57"/><path d="M127,80L127,77L118,89Z" fill="rgb(156, 172, 145)" fill-opacity="0.54"/><path d="M135,113L135,118L130,118Z" fill="rgb(110, 90, 85)" fill-opacity="0.53"/><path d="M70,51L78,57L57,59Z" fill="rgb(43, 104, 129)" fill-opacity="0.55"/><path d="M170,1L86,-18L141,2Z" fill="rgb(25, 44, 75)" fill-opacity="0.47"/><path d="M52,81L44,83L60,90Z" fill="rgb(133, 175, 163)" fill-opacity="0.51"/><path d="M194,50L179,41L185,59Z" fill="rgb(93, 112, 111)" fill-opacity="0.60"/><path d="M79,88L93,91L97,87Z" fill="rgb(218, 217, 191)" fill-opacity="0.59"/><path d="M144,89L164,99L162,92Z" fill="rgb(231, 193, 109)" fill-opacity="0.30"/><path d="M70,42L66,44L90,48Z" fill="rgb(178, 159, 147)" fill-opacity="0.44"/><path d="M94,34L87,49L98,37Z" fill="rgb(179, 151, 133)" fill-opacity="0.50"/><path d="M135,21L140,24L127,42Z" fill="rgb(182, 155, 133)" fill-opacity="0.62"/><path d="M92,35L87,15L82,35Z" fill="rgb(62, 93, 109)" fill-opacity="0.56"/><path d="M7,121L-36,121L7,123Z" fill="rgb(236, 144, 47)" fill-opacity="0.48"/><path d="M-15,64L11,50L38,72Z" fill="rgb(44, 121, 130)" fill-opacity="0.35"/><path d="M60,105L64,95L52,92Z" fill="rgb(156, 199, 150)" fill-opacity="0.50"/><path d="M73,42L66,42L73,44Z" fill="rgb(173, 163, 161)" fill-opacity="0.46"/><path d="M189,112L174,117L183,117Z" fill="rgb(255, 244, 150)" fill-opacity="0.53"/><path d="M65,53L73,47L62,52Z" fill="rgb(182, 176, 157)" fill-opacity="0.46"/><path d="M176,100L180,110L168,101Z" fill="rgb(249, 221, 131)" fill-opacity="0.49"/><path d="M226,132L245,135L225,133Z" fill="rgb(178, 90, 28)" fill-opacity="0.54"/><path d="M213,51L226,66L216,44Z" fill="rgb(196, 173, 132)" fill-opacity="0.51"/><path d="M244,59L252,53L244,54Z" fill="rgb(172, 166, 141)" fill-opacity="0.46"/><path d="M188,64L205,68L190,58Z" fill="rgb(125, 131, 112)" fill-opacity="0.49"/><path d="M147,71L157,72L148,57Z" fill="rgb(114, 125, 111)" fill-opacity="0.51"/><path d="M211,16L200,12L219,33Z" fill="rgb(141, 128, 111)" fill-opacity="0.56"/><path d="M147,67L138,74L149,76Z" fill="rgb(205, 176, 144)" fill-opacity="0.50"/><path d="M188,84L206,97L195,93Z" fill="rgb(241, 209, 141)" fill-opacity="0.54"/><path d="M107,114L95,106L96,115Z" fill="rgb(219, 231, 174)" fill-opacity="0.47"/><path d="M114,102L110,95L116,87Z" fill="rgb(209, 195, 140)" fill-opacity="0.54"/><path d="M220,123L213,118L213,113Z" fill="rgb(150, 103, 59)" fill-opacity="0.50"/><path d="M115,82L119,79L111,71Z" fill="rgb(226, 187, 145)" fill-opacity="0.51"/><path d="M231,130L203,127L256,124Z" fill="rgb(181, 94, 27)" fill-opacity="0.56"/><path d="M241,105L258,93L300,108Z" fill="rgb(158, 197, 155)" fill-opacity="0.53"/><path d="M73,115L67,120L82,120Z" fill="rgb(105, 69, 48)" fill-opacity="0.52"/><path d="M137,85L138,91L99,92Z" fill="rgb(179, 181, 145)" fill-opacity="0.52"/></svg>